<svg width="152" height="48" viewBox="0 0 152 48" fill="none" xmlns="http://www.w3.org/2000/svg">
<path d="M20 34C14.477 34 10 29.523 10 24C10 18.477 14.477 14 20 14C25.523 14 30 18.477 30 24C30 29.523 25.523 34 20 34ZM20 32C22.1217 32 24.1566 31.1571 25.6569 29.6569C27.1571 28.1566 28 26.1217 28 24C28 21.8783 27.1571 19.8434 25.6569 18.3431C24.1566 16.8429 22.1217 16 20 16C17.8783 16 15.8434 16.8429 14.3431 18.3431C12.8429 19.8434 12 21.8783 12 24C12 26.1217 12.8429 28.1566 14.3431 29.6569C15.8434 31.1571 17.8783 32 20 32ZM24.126 25.746L20.071 28.644C19.166 29.29 17.941 29.033 17.334 28.068C17.1149 27.7171 16.9992 27.3116 17 26.898V21.102C17 19.942 17.883 19 18.972 19C19.363 19 19.746 19.124 20.071 19.356L24.126 22.254C25.031 22.901 25.272 24.206 24.666 25.171C24.5251 25.3959 24.3417 25.5913 24.126 25.746ZM18.972 21.102V26.898L23.027 24L18.972 21.102Z" fill="#78350F"/>
<path d="M44.0078 26.4453L46.2734 17.625H47.4609L47.3281 19.8984L44.9062 29H43.6719L44.0078 26.4453ZM42.3125 17.625L44.1484 26.375L44.3125 29H43L40.3672 17.625H42.3125ZM50.0312 26.3516L51.8438 17.625H53.7969L51.1641 29H49.8516L50.0312 26.3516ZM47.9219 17.625L50.1641 26.4688L50.4922 29H49.2578L46.875 19.8984L46.75 17.625H47.9219ZM60.0625 27.3047V23.2734C60.0625 22.9714 60.0078 22.7109 59.8984 22.4922C59.7891 22.2734 59.6224 22.1042 59.3984 21.9844C59.1797 21.8646 58.9036 21.8047 58.5703 21.8047C58.263 21.8047 57.9974 21.8568 57.7734 21.9609C57.5495 22.0651 57.375 22.2057 57.25 22.3828C57.125 22.5599 57.0625 22.7604 57.0625 22.9844H55.1875C55.1875 22.651 55.2682 22.3281 55.4297 22.0156C55.5911 21.7031 55.8255 21.4245 56.1328 21.1797C56.4401 20.9349 56.8073 20.7422 57.2344 20.6016C57.6615 20.4609 58.1406 20.3906 58.6719 20.3906C59.3073 20.3906 59.8698 20.4974 60.3594 20.7109C60.8542 20.9245 61.2422 21.2474 61.5234 21.6797C61.8099 22.1068 61.9531 22.6432 61.9531 23.2891V27.0469C61.9531 27.4323 61.9792 27.7786 62.0312 28.0859C62.0885 28.388 62.1693 28.651 62.2734 28.875V29H60.3438C60.2552 28.7969 60.1849 28.5391 60.1328 28.2266C60.0859 27.9089 60.0625 27.6016 60.0625 27.3047ZM60.3359 23.8594L60.3516 25.0234H59C58.651 25.0234 58.3438 25.0573 58.0781 25.125C57.8125 25.1875 57.5911 25.2812 57.4141 25.4062C57.237 25.5312 57.1042 25.6823 57.0156 25.8594C56.9271 26.0365 56.8828 26.237 56.8828 26.4609C56.8828 26.6849 56.9349 26.8906 57.0391 27.0781C57.1432 27.2604 57.2943 27.4036 57.4922 27.5078C57.6953 27.612 57.9401 27.6641 58.2266 27.6641C58.612 27.6641 58.9479 27.5859 59.2344 27.4297C59.526 27.2682 59.7552 27.0729 59.9219 26.8438C60.0885 26.6094 60.1771 26.388 60.1875 26.1797L60.7969 27.0156C60.7344 27.2292 60.6276 27.4583 60.4766 27.7031C60.3255 27.9479 60.1276 28.1823 59.8828 28.4062C59.6432 28.625 59.3542 28.8047 59.0156 28.9453C58.6823 29.0859 58.2969 29.1562 57.8594 29.1562C57.3073 29.1562 56.8151 29.0469 56.3828 28.8281C55.9505 28.6042 55.612 28.3047 55.3672 27.9297C55.1224 27.5495 55 27.1198 55 26.6406C55 26.1927 55.0833 25.7969 55.25 25.4531C55.4219 25.1042 55.6719 24.8125 56 24.5781C56.3333 24.3438 56.7396 24.1667 57.2188 24.0469C57.6979 23.9219 58.2448 23.8594 58.8594 23.8594H60.3359ZM68.2969 20.5469V21.9219H63.5312V20.5469H68.2969ZM64.9062 18.4766H66.7891V26.6641C66.7891 26.9245 66.8255 27.125 66.8984 27.2656C66.9766 27.401 67.0833 27.4922 67.2188 27.5391C67.3542 27.5859 67.513 27.6094 67.6953 27.6094C67.8255 27.6094 67.9505 27.6016 68.0703 27.5859C68.1901 27.5703 68.2865 27.5547 68.3594 27.5391L68.3672 28.9766C68.2109 29.0234 68.0286 29.0651 67.8203 29.1016C67.6172 29.138 67.3828 29.1562 67.1172 29.1562C66.6849 29.1562 66.3021 29.0807 65.9688 28.9297C65.6354 28.7734 65.375 28.5208 65.1875 28.1719C65 27.8229 64.9062 27.3594 64.9062 26.7812V18.4766ZM73.7031 27.6562C74.0104 27.6562 74.2865 27.5964 74.5312 27.4766C74.7812 27.3516 74.9818 27.1797 75.1328 26.9609C75.2891 26.7422 75.375 26.4896 75.3906 26.2031H77.1641C77.1536 26.75 76.9922 27.2474 76.6797 27.6953C76.3672 28.1432 75.9531 28.5 75.4375 28.7656C74.9219 29.026 74.3516 29.1562 73.7266 29.1562C73.0807 29.1562 72.5182 29.0469 72.0391 28.8281C71.5599 28.6042 71.1615 28.2969 70.8438 27.9062C70.526 27.5156 70.2865 27.0651 70.125 26.5547C69.9688 26.0443 69.8906 25.4974 69.8906 24.9141V24.6406C69.8906 24.0573 69.9688 23.5104 70.125 23C70.2865 22.4844 70.526 22.0312 70.8438 21.6406C71.1615 21.25 71.5599 20.9453 72.0391 20.7266C72.5182 20.5026 73.0781 20.3906 73.7188 20.3906C74.3958 20.3906 74.9896 20.526 75.5 20.7969C76.0104 21.0625 76.4115 21.4349 76.7031 21.9141C77 22.388 77.1536 22.9401 77.1641 23.5703H75.3906C75.375 23.2578 75.2969 22.9766 75.1562 22.7266C75.0208 22.4714 74.8281 22.2682 74.5781 22.1172C74.3333 21.9661 74.0391 21.8906 73.6953 21.8906C73.3151 21.8906 73 21.9688 72.75 22.125C72.5 22.276 72.3047 22.4844 72.1641 22.75C72.0234 23.0104 71.9219 23.3047 71.8594 23.6328C71.8021 23.9557 71.7734 24.2917 71.7734 24.6406V24.9141C71.7734 25.263 71.8021 25.6016 71.8594 25.9297C71.9167 26.2578 72.0156 26.5521 72.1562 26.8125C72.3021 27.0677 72.5 27.2734 72.75 27.4297C73 27.5807 73.3177 27.6562 73.7031 27.6562ZM80.9688 17V29H79.0938V17H80.9688ZM80.6406 24.4609L80.0312 24.4531C80.0365 23.8698 80.1172 23.3307 80.2734 22.8359C80.4349 22.3411 80.6589 21.9115 80.9453 21.5469C81.237 21.1771 81.5859 20.8932 81.9922 20.6953C82.3984 20.4922 82.849 20.3906 83.3438 20.3906C83.7604 20.3906 84.1354 20.4479 84.4688 20.5625C84.8073 20.6771 85.099 20.862 85.3438 21.1172C85.5885 21.3672 85.7734 21.6953 85.8984 22.1016C86.0286 22.5026 86.0938 22.9922 86.0938 23.5703V29H84.2031V23.5547C84.2031 23.1484 84.1432 22.8255 84.0234 22.5859C83.9089 22.3464 83.7396 22.1745 83.5156 22.0703C83.2917 21.9609 83.0182 21.9062 82.6953 21.9062C82.3568 21.9062 82.0573 21.974 81.7969 22.1094C81.5417 22.2448 81.3281 22.4297 81.1562 22.6641C80.9844 22.8984 80.8542 23.1693 80.7656 23.4766C80.6823 23.7839 80.6406 24.112 80.6406 24.4609ZM96.4766 29H94.0469L94.0625 27.4453H96.4766C97.1797 27.4453 97.7682 27.2917 98.2422 26.9844C98.7214 26.6771 99.0807 26.237 99.3203 25.6641C99.5651 25.0911 99.6875 24.4089 99.6875 23.6172V23C99.6875 22.3854 99.6172 21.8411 99.4766 21.3672C99.3411 20.8932 99.138 20.4948 98.8672 20.1719C98.6016 19.849 98.2734 19.6042 97.8828 19.4375C97.4974 19.2708 97.0521 19.1875 96.5469 19.1875H94V17.625H96.5469C97.3021 17.625 97.9922 17.7526 98.6172 18.0078C99.2422 18.2578 99.7812 18.6198 100.234 19.0938C100.693 19.5677 101.044 20.1354 101.289 20.7969C101.534 21.4583 101.656 22.1979 101.656 23.0156V23.6172C101.656 24.4349 101.534 25.1745 101.289 25.8359C101.044 26.4974 100.693 27.0651 100.234 27.5391C99.776 28.0078 99.2292 28.3698 98.5938 28.625C97.9635 28.875 97.2578 29 96.4766 29ZM95.1328 17.625V29H93.1719V17.625H95.1328ZM107.664 29.1562C107.039 29.1562 106.474 29.0547 105.969 28.8516C105.469 28.6432 105.042 28.3542 104.688 27.9844C104.339 27.6146 104.07 27.1797 103.883 26.6797C103.695 26.1797 103.602 25.6406 103.602 25.0625V24.75C103.602 24.0885 103.698 23.4896 103.891 22.9531C104.083 22.4167 104.352 21.9583 104.695 21.5781C105.039 21.1927 105.445 20.8984 105.914 20.6953C106.383 20.4922 106.891 20.3906 107.438 20.3906C108.042 20.3906 108.57 20.4922 109.023 20.6953C109.477 20.8984 109.852 21.1849 110.148 21.5547C110.451 21.9193 110.674 22.3542 110.82 22.8594C110.971 23.3646 111.047 23.9219 111.047 24.5312V25.3359H104.516V23.9844H109.188V23.8359C109.177 23.4974 109.109 23.1797 108.984 22.8828C108.865 22.5859 108.68 22.3464 108.43 22.1641C108.18 21.9818 107.846 21.8906 107.43 21.8906C107.117 21.8906 106.839 21.9583 106.594 22.0938C106.354 22.224 106.154 22.4141 105.992 22.6641C105.831 22.9141 105.706 23.2161 105.617 23.5703C105.534 23.9193 105.492 24.3125 105.492 24.75V25.0625C105.492 25.4323 105.542 25.776 105.641 26.0938C105.745 26.4062 105.896 26.6797 106.094 26.9141C106.292 27.1484 106.531 27.3333 106.812 27.4688C107.094 27.599 107.414 27.6641 107.773 27.6641C108.227 27.6641 108.63 27.5729 108.984 27.3906C109.339 27.2083 109.646 26.9505 109.906 26.6172L110.898 27.5781C110.716 27.8438 110.479 28.099 110.188 28.3438C109.896 28.5833 109.539 28.7786 109.117 28.9297C108.701 29.0807 108.216 29.1562 107.664 29.1562ZM114.898 22.2656V29H113.016V20.5469H114.789L114.898 22.2656ZM114.594 24.4609L113.953 24.4531C113.953 23.8698 114.026 23.3307 114.172 22.8359C114.318 22.3411 114.531 21.9115 114.812 21.5469C115.094 21.1771 115.443 20.8932 115.859 20.6953C116.281 20.4922 116.768 20.3906 117.32 20.3906C117.706 20.3906 118.057 20.4479 118.375 20.5625C118.698 20.6719 118.977 20.8464 119.211 21.0859C119.451 21.3255 119.633 21.6328 119.758 22.0078C119.888 22.3828 119.953 22.8359 119.953 23.3672V29H118.07V23.5312C118.07 23.1198 118.008 22.7969 117.883 22.5625C117.763 22.3281 117.589 22.1615 117.359 22.0625C117.135 21.9583 116.867 21.9062 116.555 21.9062C116.201 21.9062 115.898 21.974 115.648 22.1094C115.404 22.2448 115.203 22.4297 115.047 22.6641C114.891 22.8984 114.776 23.1693 114.703 23.4766C114.63 23.7839 114.594 24.112 114.594 24.4609ZM119.836 23.9609L118.953 24.1562C118.953 23.6458 119.023 23.1641 119.164 22.7109C119.31 22.2526 119.521 21.8516 119.797 21.5078C120.078 21.1589 120.424 20.8854 120.836 20.6875C121.247 20.4896 121.719 20.3906 122.25 20.3906C122.682 20.3906 123.068 20.4505 123.406 20.5703C123.75 20.6849 124.042 20.8672 124.281 21.1172C124.521 21.3672 124.703 21.6927 124.828 22.0938C124.953 22.4896 125.016 22.9688 125.016 23.5312V29H123.125V23.5234C123.125 23.0964 123.062 22.7656 122.938 22.5312C122.818 22.2969 122.646 22.1354 122.422 22.0469C122.198 21.9531 121.93 21.9062 121.617 21.9062C121.326 21.9062 121.068 21.9609 120.844 22.0703C120.625 22.1745 120.44 22.3229 120.289 22.5156C120.138 22.7031 120.023 22.9193 119.945 23.1641C119.872 23.4089 119.836 23.6745 119.836 23.9609ZM127.094 24.8672V24.6875C127.094 24.0781 127.182 23.513 127.359 22.9922C127.536 22.4661 127.792 22.0104 128.125 21.625C128.464 21.2344 128.875 20.9323 129.359 20.7188C129.849 20.5 130.401 20.3906 131.016 20.3906C131.635 20.3906 132.188 20.5 132.672 20.7188C133.161 20.9323 133.576 21.2344 133.914 21.625C134.253 22.0104 134.51 22.4661 134.688 22.9922C134.865 23.513 134.953 24.0781 134.953 24.6875V24.8672C134.953 25.4766 134.865 26.0417 134.688 26.5625C134.51 27.0833 134.253 27.5391 133.914 27.9297C133.576 28.3151 133.164 28.6172 132.68 28.8359C132.195 29.0495 131.646 29.1562 131.031 29.1562C130.411 29.1562 129.857 29.0495 129.367 28.8359C128.883 28.6172 128.471 28.3151 128.133 27.9297C127.794 27.5391 127.536 27.0833 127.359 26.5625C127.182 26.0417 127.094 25.4766 127.094 24.8672ZM128.977 24.6875V24.8672C128.977 25.2474 129.016 25.6068 129.094 25.9453C129.172 26.2839 129.294 26.5807 129.461 26.8359C129.628 27.0911 129.841 27.2917 130.102 27.4375C130.362 27.5833 130.672 27.6562 131.031 27.6562C131.38 27.6562 131.682 27.5833 131.938 27.4375C132.198 27.2917 132.411 27.0911 132.578 26.8359C132.745 26.5807 132.867 26.2839 132.945 25.9453C133.029 25.6068 133.07 25.2474 133.07 24.8672V24.6875C133.07 24.3125 133.029 23.9583 132.945 23.625C132.867 23.2865 132.742 22.987 132.57 22.7266C132.404 22.4661 132.19 22.263 131.93 22.1172C131.674 21.9661 131.37 21.8906 131.016 21.8906C130.661 21.8906 130.354 21.9661 130.094 22.1172C129.839 22.263 129.628 22.4661 129.461 22.7266C129.294 22.987 129.172 23.2865 129.094 23.625C129.016 23.9583 128.977 24.3125 128.977 24.6875Z" fill="#78350F"/>
</svg>
